<svg id="Capa_1" data-name="Capa 1" xmlns="http://www.w3.org/2000/svg" viewBox="0 0 129.87726 50.90204"><defs><style>.cls-1{fill:#fff;}</style></defs><title>LPV2</title><rect width="129.87723" height="50.90204"/><path class="cls-1" d="M35.47314,34.89955c0-.0957-.26464-.144-.792-.144q-.72071,0-.72021.144a19.8512,19.8512,0,0,1-.71973,5.32813,12.69189,12.69189,0,0,1-2.34033,4.60791A11.70419,11.70419,0,0,1,26.689,48.07533a14.56549,14.56549,0,0,1-6.26416,1.22413H14.377q-.43212,0-.43213-.28809V1.99526c0-.19092.14405-.2876.43213-.2876h5.688c.04736,0,.07227-.07227.07227-.21631V.26772c0-.16449-.02191-.24445-.05713-.26776H0v1.7077H5.73682a.255.255,0,0,1,.28808.2876V49.01137a.25477.25477,0,0,1-.28808.28809H0V50.902H35.44293a.2148.2148,0,0,0,.03021-.09033Z" transform="translate(0 0.00004)"/><path class="cls-1" d="M57.93652,50.81166a.544.544,0,0,0,.01026.09033H78.184a5.55686,5.55686,0,0,0,.0567-.6665,7.81168,7.81168,0,0,0-.07177-.936h-5.832a.25477.25477,0,0,1-.28808-.28809V1.99526a.255.255,0,0,1,.28808-.2876h5.832a5.87551,5.87551,0,0,0,.07177-.792A7.76618,7.76618,0,0,0,78.171,0H58.39471A21.87167,21.87167,0,0,0,51.169,1.2394,16.34784,16.34784,0,0,0,45.5166,4.65932a14.56242,14.56242,0,0,0-3.456,5.04,16.08136,16.08136,0,0,0-1.188,6.19189,14.59025,14.59025,0,0,0,1.188,5.94043,13.269,13.269,0,0,0,3.38427,4.64405,15.67721,15.67721,0,0,0,5.292,3.02392,20.896,20.896,0,0,0,6.91211,1.07959,22.11717,22.11717,0,0,0,3.59961-.25195q1.51245-.25122,2.88037-.61182v19.2959q0,.28857-.43213.28809h-5.688c-.04736,0-.07227.09668-.07227.28808v1.22412Zm6.19239-23.1123a9.59568,9.59568,0,0,1-2.916.936,25.0631,25.0631,0,0,1-3.564.21631,12.15892,12.15892,0,0,1-3.92432-.57617,6.09763,6.09763,0,0,1-2.84375-2.01611,9.44341,9.44341,0,0,1-1.6919-3.96,31.3901,31.3901,0,0,1-.54-6.40821,25.1628,25.1628,0,0,1,.75586-6.62353,12.08478,12.08478,0,0,1,2.08789-4.39209,7.79359,7.79359,0,0,1,3.24023-2.41211,11.34192,11.34192,0,0,1,4.21191-.75586h4.752c.28808,0,.43213.09668.43213.2876Z" transform="translate(0 0.00004)"/><path class="cls-1" d="M115.82422,0v1.7077h5.68848c.23925,0,.34765.15625.32324.46777a16.23013,16.23013,0,0,1-.75586,2.55615l-11.30371,36L95.08789,1.99526c-.04785-.19092.07227-.2876.36035-.2876h6.33594c.04785,0,.07227-.07227.07227-.21631V.26772c0-.16449-.02167-.24445-.05707-.26776H79.80664c-.038.02331-.06934.10327-.09033.26776a5.28146,5.28146,0,0,0-.03613.648,3.82947,3.82947,0,0,0,.03613.54c.02441.16845.06055.25195.10791.25195h6.26367c.33545,0,.52783.09668.57617.2876L105.70734,50.902H108.14L122.66406,4.73158q.71923-2.01489.93653-2.52a.69738.69738,0,0,1,.64746-.50391h5.61621c.00567,0,.008-.011.013-.01312V0Z" transform="translate(0 0.00004)"/><path class="cls-1" d="M100.9,43.94151a.96336.96336,0,0,1,.34719.20376,2.07974,2.07974,0,0,1,.35394.42352,3.57863,3.57863,0,0,1,.32963.6611l.86244,2.20941c.00193.00495-.00163.00919-.00973.0152a.11791.11791,0,0,1-.02718.01631.14746.14746,0,0,1-.03622.00844c-.01131.00157-.01746.00111-.01939-.00384l-.23082-.59132q-.01449-.03711-.03-.03105l-2.52377.98515q-.01553.00606-.001.04317l.23082.59132c.00194.005-.001.00894-.00907.015a.11791.11791,0,0,1-.02718.01631.15832.15832,0,0,1-.03687.00869c-.01132.00157-.01746.00111-.01939-.00383l-.73882-1.89273a4.44059,4.44059,0,0,1-.18718-.5941,2.53323,2.53323,0,0,1-.07444-.53832,1.05843,1.05843,0,0,1,.065-.416.39656.39656,0,0,1,.23087-.23553.384.384,0,0,1,.3032.0185,1.16745,1.16745,0,0,1,.31937.21462,1.94545,1.94545,0,0,1,.28459.328,1.80455,1.80455,0,0,1,.1966.36233,3.29347,3.29347,0,0,1-.16877-.58133,2.28687,2.28687,0,0,1-.04534-.544,1.1363,1.1363,0,0,1,.09542-.43355.45681.45681,0,0,1,.56614-.25521Zm-1.5045,1.78761a.39077.39077,0,0,0-.11059.21709.78055.78055,0,0,0,.02277.31044,3.51836,3.51836,0,0,0,.14282.43465l.11493.29442q.02028.052.03581.0459l1.1244-.43891-.22213-.56906a1.86821,1.86821,0,0,0-.1482-.30709.49214.49214,0,0,0-.17137-.17546.39782.39782,0,0,0-.22266-.04709,1.136,1.136,0,0,0-.3053.07926A.74272.74272,0,0,0,99.39548,45.72912Zm1.18444-.78167a.52472.52472,0,0,0-.13979.28551.9182.9182,0,0,0,.02526.36649,3.80235,3.80235,0,0,0,.14958.45767l.196.50225,1.314-.5129q.01552-.00606-.00475-.058l-.21344-.54679a3.20755,3.20755,0,0,0-.18652-.40333.88767.88767,0,0,0-.20614-.25882.45081.45081,0,0,0-.25457-.10591.7502.7502,0,0,0-.33242.06133A.94673.94673,0,0,0,100.57992,44.94745Z" transform="translate(0 0.00004)"/><path class="cls-1" d="M100.12762,40.61065c.00193.005-.00163.00919-.00972.0152a.11791.11791,0,0,1-.02718.01631.14791.14791,0,0,1-.03622.00844c-.01132.00156-.01746.00111-.01939-.00384l-.22793-.5839q-.02028-.052-.02323-.02514l-.58187.78025.62873,1.61067.77108.14949a.8375.8375,0,0,0,.15935.01478q.032-.00395.02331-.02621l-.21923-.56163c-.00193-.005.00228-.00944.01167-.016a.14734.14734,0,0,1,.03235-.01833.11832.11832,0,0,1,.031-.00642c.01-.00106.01552-.00035.01745.0046l.53407,1.3682a.18611.18611,0,0,1-.0398.02409.239.239,0,0,1-.05271.012l-.21054-.53936a.10081.10081,0,0,0-.05227-.05943.90353.90353,0,0,0-.17386-.04048l-3.15932-.59719a.50637.50637,0,0,1-.06374-.1633l2.00722-2.79927q.01166-.00454-.00863-.0565l-.23662-.60617q-.00289-.00743.01263-.01348l.03429-.01339.03105-.01212q.01165-.00455.01454.00288Zm-1.93433,1.51347,1.52182.28125-.58816-1.50675Z" transform="translate(0 0.00004)"/><path class="cls-1" d="M97.496,33.78871a1.54361,1.54361,0,0,1,.17982.34607,2.14614,2.14614,0,0,1,.11861.41844,1.09634,1.09634,0,0,1,.002.38129.6854.6854,0,0,1-.46089.542l-.251.098a.335.335,0,0,0-.18388.15731.55067.55067,0,0,0-.05506.26384,1.44131,1.44131,0,0,0,.05373.35538,4.1462,4.1462,0,0,0,.14155.42373l.21923.56164,1.27126-.49624q.01554-.00606-.00475-.058l-.26173-.67049.09252-.03612.84216,2.15746c.00193.005-.00163.00919-.00972.0152a.118.118,0,0,1-.02719.01631.1469.1469,0,0,1-.03622.00844c-.01131.00157-.01745.00111-.01939-.00384l-.23082-.59132q-.01449-.03711-.03-.03105l-2.52377.98515q-.01553.00606-.001.04317l.23083.59132c.00193.005-.001.00894-.00908.01495a.11791.11791,0,0,1-.02718.01631.15782.15782,0,0,1-.03687.00869c-.01132.00157-.01746.00112-.01939-.00383L95.66,37.25389a4.13682,4.13682,0,0,1-.20932-.691,2.35774,2.35774,0,0,1-.054-.56054,1.01146,1.01146,0,0,1,.08858-.39952.41436.41436,0,0,1,.22114-.21462.3845.3845,0,0,1,.29513.0131,1.062,1.062,0,0,1,.31646.2129,1.99432,1.99432,0,0,1,.29844.35965,2.417,2.417,0,0,1,.23685.45781,3.49141,3.49141,0,0,1-.19578-.66772,1.84942,1.84942,0,0,1-.02662-.52848.87312.87312,0,0,1,.127-.37746.56181.56181,0,0,1,.26284-.21094l.34741-.13561a.22905.22905,0,0,0,.16259-.18892.681.681,0,0,0-.05928-.32185,1.10882,1.10882,0,0,0-.0873-.18546.51106.51106,0,0,0-.11134-.11905c.00328-.0298.00687-.05116.00981-.06656s.00587-.0308.00977-.04373.00617-.01666.0081-.01171A1.15058,1.15058,0,0,1,97.496,33.78871Zm-1.72983,2.5855a.49471.49471,0,0,0-.11065.25133.921.921,0,0,0,.02468.3325,3.11336,3.11336,0,0,0,.13315.41561l.15839.40576q.02028.052.03581.0459l1.15934-.45255-.21923-.56163a3.45967,3.45967,0,0,0-.17974-.39743.64708.64708,0,0,0-.18616-.2267.38461.38461,0,0,0-.22909-.06739.95874.95874,0,0,0-.31305.07658A.66682.66682,0,0,0,95.76617,36.37421Z" transform="translate(0 0.00004)"/><path class="cls-1" d="M95.91905,29.64572a.4089.4089,0,0,1,.027.08069.211.211,0,0,0-.04092.11861.4895.4895,0,0,0,.04326.23116,2.1261,2.1261,0,0,0,.12178.25469c.05061.09144.10251.18237.15666.27528s.108.18879.16053.28518a2.58294,2.58294,0,0,1,.1353.28932,3.33468,3.33468,0,0,1,.2235.92206,2.73918,2.73918,0,0,1-.04207.82045,1.68636,1.68636,0,0,1-.27745.64146,1.07131,1.07131,0,0,1-1.09691.431,1.66414,1.66414,0,0,1-.63317-.27175,2.54055,2.54055,0,0,1-.58161-.56559,3.32186,3.32186,0,0,1-.45576-.82569,2.37879,2.37879,0,0,1-.0817-.25323c-.02345-.09063-.04593-.1845-.06549-.27665-.02054-.09463-.043-.1885-.0655-.27666a2.26412,2.26412,0,0,0-.08105-.25347.795.795,0,0,0-.12377-.2254q-.06582-.077-.10267-.07967c-.00453.00177-.01678-.022-.03609-.07145-.02125-.05443-.02928-.08265-.02476-.08442l.87727-.34244q.00777-.003.03964.07861.029.07423.02121.07726a.483.483,0,0,0-.2396.23038,1.21913,1.21913,0,0,0-.13224.41372,2.2151,2.2151,0,0,0-.01183.51212,1.8532,1.8532,0,0,0,.11909.51518,3.04762,3.04762,0,0,0,.1991.41838,1.50907,1.50907,0,0,0,.25388.33143.93312.93312,0,0,0,.57282.20692,2.08907,2.08907,0,0,0,.82915-.1754,2.06713,2.06713,0,0,0,.72807-.43246.93507.93507,0,0,0,.27727-.53876,1.29086,1.29086,0,0,0-.03776-.43288,3.56439,3.56439,0,0,0-.14473-.45671,2.62491,2.62491,0,0,0-.28553-.54431,1.80588,1.80588,0,0,0-.36045-.39246,1.08376,1.08376,0,0,0-.395-.20219.62346.62346,0,0,0-.39345.01958c-.00517.002-.01742-.02171-.03577-.06872q-.03188-.08165-.02411-.08468l.951-.37123A.28967.28967,0,0,1,95.91905,29.64572Z" transform="translate(0 0.00004)"/><path class="cls-1" d="M94.07991,25.11753l1.48247,3.79782a.18611.18611,0,0,1-.0398.02409.239.239,0,0,1-.05271.012l-.22793-.5839q-.01738-.04454-.03291-.03847l-2.52377.98514q-.01552.00608.00186.0506l.22793.5839a.1768.1768,0,0,1-.03916.02384.24405.24405,0,0,1-.05336.01227l-1.35306-3.46628q-.00579-.01485.00585-.01939l.74206-.28966c.00259-.001.00743.00565.01548.02247s.01643.03635.02415.05614.01384.03737.01931.05519.00739.02848.0048.02949a.57506.57506,0,0,0-.23075.16136.61044.61044,0,0,0-.13172.2852,1.26013,1.26013,0,0,0-.001.41951,2.53731,2.53731,0,0,0,.15813.55982l.25883.66308q.02318.05937.03871.05331l1.17875-.46012-.07147-.18309a1.42464,1.42464,0,0,0-.364-.57924.38454.38454,0,0,0-.40588-.09246q-.00775.003-.03673-.0712t-.02121-.07725l.97366-.38007q.00777-.003.03674.07119t.02121.07726a.38528.38528,0,0,0-.23331.342,1.396,1.396,0,0,0,.12206.67369l.07147.18309,1.2525-.48891q.01553-.00606-.00765-.06544l-.26752-.68534a3.711,3.711,0,0,0-.33348-.6767,1.72069,1.72069,0,0,0-.34008-.39756.70554.70554,0,0,0-.333-.16368.59754.59754,0,0,0-.31492.0317q-.00775.003-.03673-.0712c-.02028-.052-.02832-.08018-.02314-.0822l.819-.31971Q94.07121,25.09527,94.07991,25.11753Z" transform="translate(0 0.00004)"/><path class="cls-1" d="M92.4178,20.85952l1.4168,3.62957a.18611.18611,0,0,1-.0398.02409.23943.23943,0,0,1-.05272.012l-.23371-.59875q-.01159-.02969-.02712-.02363l-2.52377.98515q-.01552.00606-.00393.03575l.23372.59875a.17707.17707,0,0,1-.03916.02383.24412.24412,0,0,1-.05336.01228l-.80836-2.07086q-.0029-.00742.01263-.01349l.03494-.01363.031-.01213c.00712-.00277.012-.00181.0139.00313l.22792.5839q.01738.04454.03291.03848l2.52377-.98515q.01552-.00606-.00186-.0506l-.24241-.621a2.882,2.882,0,0,0-.31613-.615,1.51836,1.51836,0,0,0-.343-.36505.73147.73147,0,0,0-.34082-.14352.6444.6444,0,0,0-.31492.0374q-.00777.003-.03674-.0712-.03187-.08164-.02411-.08468l.854-.33334Q92.4091,20.83726,92.4178,20.85952Z" transform="translate(0 0.00004)"/><path class="cls-1" d="M89.72229,16.34343a1.71489,1.71489,0,0,1,.638.28983,2.57841,2.57841,0,0,1,.57675.57033,3.47433,3.47433,0,0,1,.6606,1.69232,2.64576,2.64576,0,0,1-.03785.81024,1.70452,1.70452,0,0,1-.27389.64293,1.07613,1.07613,0,0,1-.49168.38865,1.098,1.098,0,0,1-.615.05187,1.6642,1.6642,0,0,1-.63317-.27175,2.54055,2.54055,0,0,1-.58161-.56559,3.53563,3.53563,0,0,1-.67413-1.71554,2.59761,2.59761,0,0,1,.03785-.81024,1.70372,1.70372,0,0,1,.27486-.64616,1.08942,1.08942,0,0,1,1.11923-.43689Zm-1.01953,1.3474a.93317.93317,0,0,0-.28116.54027,1.519,1.519,0,0,0,.03683.4133,3.31234,3.31234,0,0,0,.34092.87337,1.39576,1.39576,0,0,0,.24808.31658.93315.93315,0,0,0,.57282.20692,2.08889,2.08889,0,0,0,.82915-.1754,3.12017,3.12017,0,0,0,.46231-.21752,1.47336,1.47336,0,0,0,.29875-.22782.83164.83164,0,0,0,.17077-.24627.92341.92341,0,0,0,.07351-.2796,1.184,1.184,0,0,0-.02617-.4032,3.5312,3.5312,0,0,0-.34092-.87337,1.28305,1.28305,0,0,0-.25873-.32668.99722.99722,0,0,0-.24156-.15091.79673.79673,0,0,0-.29439-.07041,1.47913,1.47913,0,0,0-.37311.0373,3.0905,3.0905,0,0,0-.48839.15073A2.13681,2.13681,0,0,0,88.70276,17.69083Z" transform="translate(0 0.00004)"/><path class="cls-1" d="M85.97205,12.16207q.01449.03711.03.03105l2.68227-1.047c.00518-.002.01807.02146.03965.07291a.20408.20408,0,0,1,.026.09534L87.27613,15.331l2.48107-.96848q.01553-.00607.00394-.03576l-.23372-.59874a.23894.23894,0,0,1,.04692-.02687.18614.18614,0,0,1,.04559-.00924l.55436,1.42016c.00193.005-.00163.00919-.00972.0152a.11791.11791,0,0,1-.02718.01631.14791.14791,0,0,1-.03622.00844c-.01132.00156-.01746.00111-.01939-.00384l-.22793-.5839q-.01449-.03711-.03-.03105l-2.52377.98515q-.01552.00606-.001.04317l.22793.5839c.00193.005-.001.00894-.00908.01495a.11791.11791,0,0,1-.02718.01631.15883.15883,0,0,1-.03687.00869c-.01131.00157-.01746.00111-.01939-.00384L86.85691,14.702a.17037.17037,0,0,1-.01249-.0721.67.67,0,0,1,.02248-.10857l1.06828-2.89749-1.87034.73008q-.01552.00606.00186.0506l.22792.5839a.01951.01951,0,0,1-.00521.02484.119.119,0,0,1-.02815.01384.1653.1653,0,0,1-.0359.01116.02034.02034,0,0,1-.02325-.01373l-.55339-1.41769a.24407.24407,0,0,1,.04756-.02712.17681.17681,0,0,1,.045-.009Z" transform="translate(0 0.00004)"/><path class="cls-1" d="M87.27212,7.67725c.00193.005-.00163.00919-.00972.0152a.11791.11791,0,0,1-.02718.01631.14746.14746,0,0,1-.03622.00844c-.01132.00157-.01746.00111-.01939-.00384l-.22793-.5839q-.02028-.05194-.02323-.02514l-.58187.78025.62872,1.61067.77108.14949a.83756.83756,0,0,0,.15935.01478q.032-.00394.02332-.02621l-.21923-.56163c-.00193-.00495.00228-.00944.01166-.016a.14767.14767,0,0,1,.03236-.01833.1179.1179,0,0,1,.031-.00641c.01-.00107.01552-.00036.01745.00459l.53408,1.3682a.18611.18611,0,0,1-.0398.02409.23946.23946,0,0,1-.05271.012l-.21054-.53937a.10082.10082,0,0,0-.05228-.05943.90336.90336,0,0,0-.17385-.04048l-3.15932-.59719a.50676.50676,0,0,1-.06375-.16329l2.00723-2.79928q.01164-.00455-.00864-.0565l-.23661-.60617q-.0029-.00741.01263-.01348l.03429-.01338.031-.01213q.01164-.00455.01454.00288ZM85.33779,9.19072l1.52182.28126-.58816-1.50676Z" transform="translate(0 0.00004)"/></svg>